<svg width="20" height="20" viewBox="0 0 20 20" fill="none" xmlns="http://www.w3.org/2000/svg">
<path d="M9.9998 3C11.3713 2.99992 12.7126 3.40277 13.8571 4.1585C15.0017 4.91423 15.899 5.98955 16.4376 7.2509C16.9762 8.51226 17.1325 9.90405 16.8869 11.2534C16.6413 12.6028 16.0047 13.8503 15.0562 14.841C14.1077 15.8317 12.8891 16.5219 11.5517 16.8259C10.2143 17.1299 8.81707 17.0343 7.53354 16.551C6.25001 16.0676 5.13674 15.2179 4.332 14.1073C3.52727 12.9966 3.06652 11.6741 3.007 10.3038L3 10L3.007 9.6962C3.08528 7.89405 3.85623 6.19169 5.15905 4.94412C6.46187 3.69656 8.196 3.0001 9.9998 3Z" fill="#19C271"/>
<path d="M10.3027 1.75586C11.8131 1.81127 13.2814 2.28032 14.5459 3.11523L14.7949 3.28711C16.0249 4.16564 16.9917 5.36616 17.5869 6.75977L17.7012 7.04004C18.2435 8.45107 18.3876 9.98649 18.1162 11.4775C17.8448 12.9685 17.1687 14.354 16.1641 15.4834L15.959 15.7051C14.9111 16.7996 13.5836 17.5838 12.123 17.9727L11.8291 18.0449C10.3513 18.3808 8.81115 18.3028 7.37793 17.8223L7.09277 17.7207C5.67459 17.1866 4.4331 16.2727 3.50195 15.082L3.31934 14.8408C2.37102 13.532 1.82802 11.9732 1.75781 10.3584V10.333L1.75 10.0283V9.97168L1.75781 9.66699V9.6416L1.78516 9.24512C1.96664 7.26926 2.85544 5.41945 4.29492 4.04102L4.58789 3.77344C6.08545 2.47156 8.00681 1.75012 10 1.75L10.3027 1.75586Z" stroke="#19C271" stroke-opacity="0.5" stroke-width="2.5"/>
</svg>
