<svg width="20" height="20" viewBox="0 0 20 20" fill="none" xmlns="http://www.w3.org/2000/svg">
<path d="M8 8.49893C8 8.10139 8.18426 7.72013 8.51225 7.43903C8.84025 7.15792 9.2851 7 9.74895 7H10.2486C10.7125 7 11.1573 7.15792 11.4853 7.43903C11.8133 7.72013 11.9976 8.10139 11.9976 8.49893C12.016 8.82333 11.9285 9.14492 11.7482 9.41526C11.568 9.68561 11.3047 9.89007 10.9982 9.99786C10.6916 10.1416 10.4284 10.4142 10.2482 10.7747C10.0679 11.1351 9.9804 11.5639 9.9988 11.9964M9.9988 13.995V14M1 10C1 11.1819 1.23279 12.3522 1.68508 13.4442C2.13738 14.5361 2.80031 15.5282 3.63604 16.364C4.47177 17.1997 5.46392 17.8626 6.55585 18.3149C7.64778 18.7672 8.8181 19 10 19C11.1819 19 12.3522 18.7672 13.4442 18.3149C14.5361 17.8626 15.5282 17.1997 16.364 16.364C17.1997 15.5282 17.8626 14.5361 18.3149 13.4442C18.7672 12.3522 19 11.1819 19 10C19 8.8181 18.7672 7.64778 18.3149 6.55585C17.8626 5.46392 17.1997 4.47177 16.364 3.63604C15.5282 2.80031 14.5361 2.13738 13.4442 1.68508C12.3522 1.23279 11.1819 1 10 1C8.8181 1 7.64778 1.23279 6.55585 1.68508C5.46392 2.13738 4.47177 2.80031 3.63604 3.63604C2.80031 4.47177 2.13738 5.46392 1.68508 6.55585C1.23279 7.64778 1 8.8181 1 10Z" stroke="#E5E5E5" stroke-width="1.5" stroke-linecap="round" stroke-linejoin="round"/>
</svg>
