<svg width="24" height="24" viewBox="0 0 24 24" fill="none" xmlns="http://www.w3.org/2000/svg">
<g clip-path="url(#clip0_606_8957)">
<path d="M10.646 20.965C10.3244 20.9043 10.0278 20.7504 9.79292 20.5224C9.55806 20.2945 9.39535 20.0026 9.325 19.683C9.26108 19.4192 9.13578 19.1742 8.95929 18.968C8.7828 18.7618 8.56011 18.6001 8.30935 18.4963C8.05859 18.3924 7.78683 18.3491 7.51621 18.3701C7.24559 18.3911 6.98375 18.4757 6.752 18.617C5.209 19.557 3.442 17.791 4.382 16.247C4.5231 16.0153 4.60755 15.7537 4.62848 15.4832C4.64942 15.2128 4.60624 14.9412 4.50247 14.6906C4.3987 14.44 4.23726 14.2174 4.03127 14.0409C3.82529 13.8645 3.58056 13.7391 3.317 13.675C1.561 13.249 1.561 10.751 3.317 10.325C3.5808 10.2611 3.82578 10.1358 4.032 9.95929C4.23822 9.7828 4.39985 9.56011 4.50375 9.30935C4.60764 9.05859 4.65085 8.78683 4.62987 8.51621C4.60889 8.24559 4.5243 7.98375 4.383 7.752C3.443 6.209 5.209 4.442 6.753 5.382C7.753 5.99 9.049 5.452 9.325 4.317C9.751 2.561 12.249 2.561 12.675 4.317C12.7389 4.5808 12.8642 4.82578 13.0407 5.032C13.2172 5.23822 13.4399 5.39985 13.6907 5.50375C13.9414 5.60764 14.2132 5.65085 14.4838 5.62987C14.7544 5.60889 15.0162 5.5243 15.248 5.383C16.791 4.443 18.558 6.209 17.618 7.753C17.4769 7.98466 17.3924 8.24634 17.3715 8.51677C17.3506 8.78721 17.3938 9.05877 17.4975 9.30938C17.6013 9.55999 17.7627 9.78258 17.9687 9.95905C18.1747 10.1355 18.4194 10.2609 18.683 10.325C19.411 10.502 19.837 11.035 19.962 11.628M13.985 11.694C13.9272 11.1297 13.7106 10.5933 13.3603 10.1471C13.01 9.70084 12.5403 9.36311 12.0058 9.17302C11.4713 8.98294 10.8939 8.94831 10.3405 9.07314C9.78708 9.19797 9.28042 9.47715 8.87929 9.87829C8.47815 10.2794 8.19897 10.7861 8.07414 11.3395C7.94931 11.8929 7.98394 12.4703 8.17402 13.0048C8.36411 13.5393 8.70184 14.009 9.14805 14.3593C9.59426 14.7096 10.1307 14.9262 10.695 14.984M19.2 20.2L21 22M14 18C14 18.7956 14.3161 19.5587 14.8787 20.1213C15.4413 20.6839 16.2044 21 17 21C17.7956 21 18.5587 20.6839 19.1213 20.1213C19.6839 19.5587 20 18.7956 20 18C20 17.2044 19.6839 16.4413 19.1213 15.8787C18.5587 15.3161 17.7956 15 17 15C16.2044 15 15.4413 15.3161 14.8787 15.8787C14.3161 16.4413 14 17.2044 14 18Z" stroke="#267EF9" stroke-width="1.5" stroke-linecap="round" stroke-linejoin="round"/>
</g>
<defs>
<clipPath id="clip0_606_8957">
<rect width="24" height="24" fill="white"/>
</clipPath>
</defs>
</svg>
