<svg width="18" height="20" viewBox="0 0 18 20" fill="none" xmlns="http://www.w3.org/2000/svg">
<path d="M11 1V5C11 5.26522 11.1054 5.51957 11.2929 5.70711C11.4804 5.89464 11.7348 6 12 6H16M11 1H4C3.46957 1 2.96086 1.21071 2.58579 1.58579C2.21071 1.96086 2 2.46957 2 3V10M11 1L16 6M16 6V10M4 14.5C4 14.1022 3.84196 13.7206 3.56066 13.4393C3.27936 13.158 2.89782 13 2.5 13C2.10218 13 1.72064 13.158 1.43934 13.4393C1.15804 13.7206 1 14.1022 1 14.5V17.5C1 17.8978 1.15804 18.2794 1.43934 18.5607C1.72064 18.842 2.10218 19 2.5 19C2.89782 19 3.27936 18.842 3.56066 18.5607C3.84196 18.2794 4 17.8978 4 17.5M7 18.25C7 18.664 7.336 19 7.75 19H9C9.26522 19 9.51957 18.8946 9.70711 18.7071C9.89464 18.5196 10 18.2652 10 18V17C10 16.7348 9.89464 16.4804 9.70711 16.2929C9.51957 16.1054 9.26522 16 9 16H8C7.73478 16 7.48043 15.8946 7.29289 15.7071C7.10536 15.5196 7 15.2652 7 15V14C7 13.7348 7.10536 13.4804 7.29289 13.2929C7.48043 13.1054 7.73478 13 8 13H9.25C9.44891 13 9.63968 13.079 9.78033 13.2197C9.92098 13.3603 10 13.5511 10 13.75M13 13L15 19L17 13" stroke="#267EF9" stroke-width="1.5" stroke-linecap="round" stroke-linejoin="round"/>
</svg>
