<svg width="22" height="21" viewBox="0 0 22 21" fill="none" xmlns="http://www.w3.org/2000/svg">
<path d="M7.99987 11.2101L9.99987 13.2101L13.9999 9.21009M12.1629 1.37803L20.1839 7.20603C20.8779 7.71003 21.1679 8.60303 20.9029 9.41803L17.8389 18.848C17.7098 19.2453 17.4583 19.5915 17.1204 19.8371C16.7825 20.0827 16.3756 20.215 15.9579 20.215H6.04186C5.62415 20.215 5.21719 20.0827 4.87928 19.8371C4.54138 19.5915 4.28989 19.2453 4.16086 18.848L1.09686 9.41803C0.967707 9.02064 0.967712 8.59256 1.09688 8.19518C1.22605 7.7978 1.47774 7.45153 1.81586 7.20603L9.83686 1.37803C10.1749 1.13234 10.582 1 10.9999 1C11.4177 1 11.8249 1.13234 12.1629 1.37803Z" stroke="currentColor" stroke-width="1.5" stroke-linecap="round" stroke-linejoin="round"/>
</svg>
