<svg width="21" height="20" viewBox="0 0 21 20" fill="none" xmlns="http://www.w3.org/2000/svg">
<path d="M5.5 10.5C6.61892 10.5 7.69501 10.9166 8.52051 11.6641L8.68164 11.8184C9.52555 12.6623 10 13.8065 10 15C10 16.1189 9.58343 17.195 8.83594 18.0205L8.68164 18.1816C7.83773 19.0256 6.69347 19.5 5.5 19.5C4.38108 19.5 3.30499 19.0834 2.47949 18.3359L2.31836 18.1816C1.47445 17.3377 1 16.1935 1 15C1 13.8811 1.41657 12.805 2.16406 11.9795L2.31836 11.8184C3.16227 10.9744 4.30653 10.5 5.5 10.5ZM5.5 10.75C4.44324 10.75 3.4271 11.1436 2.64746 11.8496L2.49512 11.9951C1.69809 12.7921 1.25 13.8728 1.25 15C1.25 16.0568 1.64363 17.0729 2.34961 17.8525L2.49512 18.0049C3.29215 18.8019 4.37283 19.25 5.5 19.25C6.55677 19.25 7.5729 18.8564 8.35254 18.1504L8.50488 18.0049C9.30191 17.2079 9.75 16.1272 9.75 15C9.75 13.9432 9.35637 12.9271 8.65039 12.1475L8.50488 11.9951C7.70785 11.1981 6.62717 10.75 5.5 10.75ZM15.5 11.75C16.3082 11.75 17.0854 12.0509 17.6816 12.5908L17.7979 12.7021C18.4073 13.3116 18.75 14.138 18.75 15C18.75 15.8082 18.4491 16.5854 17.9092 17.1816L17.7979 17.2979C17.1884 17.9073 16.362 18.25 15.5 18.25C14.6918 18.25 13.9146 17.9491 13.3184 17.4092L13.2021 17.2979C12.5927 16.6884 12.25 15.862 12.25 15C12.25 14.1918 12.5509 13.4146 13.0908 12.8184L13.2021 12.7021C13.8116 12.0927 14.638 11.75 15.5 11.75ZM15.5 12C14.8037 12 14.1325 12.2422 13.5986 12.6797L13.3789 12.8789C12.8163 13.4415 12.5 14.2044 12.5 15C12.5 15.6963 12.7422 16.3675 13.1797 16.9014L13.3789 17.1211C13.9415 17.6837 14.7043 18 15.5 18C16.1963 18 16.8675 17.7578 17.4014 17.3203L17.6211 17.1211C18.1837 16.5585 18.5 15.7957 18.5 15C18.5 14.3037 18.2578 13.6325 17.8203 13.0986L17.6211 12.8789C17.0585 12.3163 16.2956 12 15.5 12ZM15.5 0.5C16.6189 0.5 17.695 0.916566 18.5205 1.66406L18.6816 1.81836C19.5256 2.66227 20 3.80653 20 5C20 6.11892 19.5834 7.19501 18.8359 8.02051L18.6816 8.18164C17.8377 9.02555 16.6935 9.5 15.5 9.5C14.3811 9.5 13.305 9.08343 12.4795 8.33594L12.3184 8.18164C11.4744 7.33773 11 6.19347 11 5C11 3.88108 11.4166 2.80499 12.1641 1.97949L12.3184 1.81836C13.1623 0.974446 14.3065 0.5 15.5 0.5ZM15.5 0.75C15.0116 0.75 14.5273 0.833883 14.0684 0.998047L13.874 1.07324C13.4229 1.26009 13.0075 1.52344 12.6465 1.85059L12.4951 1.99512C12.1498 2.34046 11.8666 2.74207 11.6582 3.18262L11.5732 3.37402C11.3598 3.88953 11.25 4.44205 11.25 5C11.25 5.48841 11.3339 5.97275 11.498 6.43164L11.5732 6.62598C11.7601 7.07708 12.0234 7.49245 12.3506 7.85352L12.4951 8.00488C12.8405 8.35023 13.2421 8.63339 13.6826 8.8418L13.874 8.92676C14.3895 9.14021 14.942 9.25 15.5 9.25C16.5568 9.25 17.5729 8.85637 18.3525 8.15039L18.5049 8.00488C19.3019 7.20785 19.75 6.12717 19.75 5C19.75 3.94323 19.3564 2.9271 18.6504 2.14746L18.5049 1.99512C17.7079 1.19809 16.6272 0.75 15.5 0.75ZM5.5 3C5.96419 3 6.41167 3.16145 6.76758 3.45312L6.91406 3.58594C7.28914 3.96101 7.5 4.46957 7.5 5C7.5 5.46419 7.33855 5.91167 7.04688 6.26758L6.91406 6.41406C6.53899 6.78914 6.03043 7 5.5 7C5.03581 7 4.58833 6.83855 4.23242 6.54688L4.08594 6.41406C3.71086 6.03899 3.5 5.53043 3.5 5C3.5 4.53581 3.66145 4.08833 3.95312 3.73242L4.08594 3.58594C4.46101 3.21086 4.96957 3 5.5 3ZM5.5 3.25C5.09377 3.25 4.70207 3.3912 4.39062 3.64648L4.2627 3.7627C3.93451 4.09088 3.75 4.53587 3.75 5C3.75 5.40623 3.8912 5.79793 4.14648 6.10938L4.2627 6.2373C4.59088 6.56549 5.03587 6.75 5.5 6.75C5.90623 6.75 6.29793 6.6088 6.60938 6.35352L6.7373 6.2373C7.06549 5.90912 7.25 5.46413 7.25 5C7.25 4.59377 7.1088 4.20207 6.85352 3.89062L6.7373 3.7627C6.40912 3.43451 5.96413 3.25 5.5 3.25Z" fill="black" stroke="#267EF9"/>
</svg>
