<svg width="20" height="20" viewBox="0 0 20 20" fill="none" xmlns="http://www.w3.org/2000/svg">
<path d="M2.028 11.252C1.371 10.28 1 9.174 1 8C1 4.134 5.03 1 10 1C14.97 1 19 4.134 19 8C19 11.866 14.97 15 10 15C8.087 15 6.314 14.536 4.856 13.745" fill="#FF9797"/>
<path d="M1 13C1 13.5304 1.21071 14.0391 1.58579 14.4142C1.96086 14.7893 2.46957 15 3 15C3.53043 15 4.03914 14.7893 4.41421 14.4142C4.78929 14.0391 5 13.5304 5 13C5 12.4696 4.78929 11.9609 4.41421 11.5858C4.03914 11.2107 3.53043 11 3 11C2.46957 11 1.96086 11.2107 1.58579 11.5858C1.21071 11.9609 1 12.4696 1 13Z" fill="#FF9797"/>
<path d="M3 15C3 16.42 3.316 17.805 4 19L3 15Z" fill="#FF9797"/>
<path d="M2.028 11.252C1.371 10.28 1 9.174 1 8C1 4.134 5.03 1 10 1C14.97 1 19 4.134 19 8C19 11.866 14.97 15 10 15C8.087 15 6.314 14.536 4.856 13.745M3 15C2.46957 15 1.96086 14.7893 1.58579 14.4142C1.21071 14.0391 1 13.5304 1 13C1 12.4696 1.21071 11.9609 1.58579 11.5858C1.96086 11.2107 2.46957 11 3 11C3.53043 11 4.03914 11.2107 4.41421 11.5858C4.78929 11.9609 5 12.4696 5 13C5 13.5304 4.78929 14.0391 4.41421 14.4142C4.03914 14.7893 3.53043 15 3 15ZM3 15C3 16.42 3.316 17.805 4 19" stroke="#6E6E6E" stroke-width="1.5" stroke-linecap="round" stroke-linejoin="round"/>
</svg>
