<svg width="20" height="15" viewBox="0 0 20 15" fill="none" xmlns="http://www.w3.org/2000/svg">
<path d="M3.25403 12.0107L5.91711 13.3721L5.86243 14.4766L2.00012 14.9824L1.44348 12.9287L1.81262 11.7285L3.25403 12.0107ZM14.1974 9.61816L14.9484 13.3916L13.0734 14.2188L8.93762 13.6982L8.9386 11.2764L10.8214 8.15039L14.1974 9.61816ZM11.9913 9.39746L11.9708 9.4209L12.8995 10.582L12.795 12.2451L11.1544 13.4473L11.1193 13.4727L11.1622 13.4756L13.0851 13.584V13.5908L13.0968 13.5801L14.2423 12.5625L14.2491 12.5557L14.2472 12.5469L13.674 10.3828L13.6593 10.3867L13.6798 10.3809L13.6671 10.373L11.9913 9.39746ZM19.7648 11.1455L18.6847 11.7705L15.9191 11.1816L15.9093 11.124L17.8927 8.75684L19.7648 11.1455ZM17.463 2.48438L18.7443 6.87891L19.1359 9.0459L18.2189 7.875L18.2257 7.87012L18.2072 7.86914L17.6095 7.85938V7.85059L17.5978 7.86523L15.2267 10.6914L14.9415 9.25781L14.9269 9.26074L14.9435 9.25684L14.9386 9.25098L14.715 8.97266L14.7169 8.97168L14.7091 8.96875L14.5656 8.90527L15.0079 8.31738L15.0148 8.32227L15.0109 8.30469L14.5226 6.01367L14.4923 6.01562L14.3009 7.87402L13.4493 8.4209L10.8204 7.27734L10.8136 7.29199L10.8224 7.27246L10.8097 7.27734L10.3263 7.43066L10.3253 7.42676L10.3185 7.43848L8.90735 9.77832L8.05383 9.38965L7.30872 7.83203L8.45618 4.13379L12.5118 0.0185547L17.463 2.48438ZM7.2804 9.62695L6.58801 10.3047L4.15442 10.2314L3.20227 8.92969L4.54016 7.625L6.08118 7.11719L7.2804 9.62695ZM3.99817 7.03711L2.39465 8.59863L2.39172 8.5957L2.39075 8.60938L2.36633 8.89844L0.229614 8.66309L0.937622 5.33398L3.65442 4.45117L3.99817 7.03711ZM14.8644 2.05273L13.0939 2.41211L13.0646 2.41895L13.087 2.43945L15.8741 5.0166L16.9532 7.56348L16.9825 7.55664L16.8927 4.88672H16.8956L16.8898 4.87891L14.88 2.05859L14.8741 2.05078L14.8644 2.05273ZM6.61829 1.19043H6.62219L6.77258 1.20117H6.77551L10.17 0.768555C10.2843 0.813595 10.3979 0.860217 10.5109 0.908203L8.98645 2.45605L7.88586 1.78418L7.87708 1.79785L7.88782 1.78027L7.87415 1.78223L6.06262 2.11133L4.61243 1.64746L4.59778 1.6748L5.86829 2.69043L5.86536 2.69434H5.87708L7.57727 2.71582L7.62317 4.12012L6.8009 6.76953L6.65149 6.4541L6.65637 6.45215L6.64368 6.44727L6.1759 6.24707L6.17786 6.24316L6.16516 6.24707L5.58997 6.43652L4.38782 3.89258L4.38489 3.87012L4.36926 3.87207L4.39368 3.86816L4.37805 3.8584L3.87805 3.54395L3.88293 3.53613L3.86536 3.54199L2.77942 3.89355L2.97083 2.74219L4.22473 0.530273L6.61829 1.19043Z" fill="#267EF9" stroke="#267EF9" stroke-width="0.03125"/>
</svg>
