<svg width="17" height="20" viewBox="0 0 17 20" fill="none" xmlns="http://www.w3.org/2000/svg">
<path d="M10 1V5C10 5.26522 10.1054 5.51957 10.2929 5.70711C10.4804 5.89464 10.7348 6 11 6H15M10 1H3C2.46957 1 1.96086 1.21071 1.58579 1.58579C1.21071 1.96086 1 2.46957 1 3V10M10 1L15 6M15 6V10M16 13H15C14.4696 13 13.9609 13.2107 13.5858 13.5858C13.2107 13.9609 13 14.4696 13 15V17C13 17.5304 13.2107 18.0391 13.5858 18.4142C13.9609 18.7893 14.4696 19 15 19H16V16M1 16H2.5C2.89782 16 3.27936 15.842 3.56066 15.5607C3.84196 15.2794 4 14.8978 4 14.5C4 14.1022 3.84196 13.7206 3.56066 13.4393C3.27936 13.158 2.89782 13 2.5 13H1V19M7 19V13L10 19V13" stroke="#267EF9" stroke-width="1.5" stroke-linecap="round" stroke-linejoin="round"/>
</svg>
