<svg width="24" height="24" viewBox="0 0 24 24" fill="none" xmlns="http://www.w3.org/2000/svg">
<path d="M13.9999 14.2101L9.99987 10.2101M9.99987 14.2101L13.9999 10.2101M13.1629 2.37803L21.1839 8.20603C21.8779 8.71003 22.1679 9.60303 21.9029 10.418L18.8389 19.848C18.7098 20.2453 18.4583 20.5915 18.1204 20.8371C17.7825 21.0827 17.3756 21.215 16.9579 21.215H7.04186C6.62415 21.215 6.21719 21.0827 5.87928 20.8371C5.54138 20.5915 5.28989 20.2453 5.16086 19.848L2.09686 10.418C1.96771 10.0206 1.96771 9.59256 2.09688 9.19518C2.22605 8.7978 2.47774 8.45153 2.81586 8.20603L10.8369 2.37803C11.1749 2.13234 11.582 2 11.9999 2C12.4177 2 12.8249 2.13234 13.1629 2.37803Z" stroke="#6E6E6E" stroke-width="1.5" stroke-linecap="round" stroke-linejoin="round"/>
</svg>
